<svg xmlns="http://www.w3.org/2000/svg" xmlns:xlink="http://www.w3.org/1999/xlink" width="900" zoomAndPan="magnify" viewBox="0 0 375 374.999991" height="900" preserveAspectRatio="xMidYMid meet" version="1.0"><defs><clipPath id="6d988661d8"><path d="M 131.25 131.25 L 243.75 131.25 L 243.75 243.75 L 131.25 243.75 Z M 131.25 131.25 " clip-rule="nonzero"/></clipPath><clipPath id="3842c9bd91"><path d="M 243.75 187.5 C 243.75 156.433594 218.566406 131.25 187.5 131.25 C 156.433594 131.25 131.25 156.433594 131.25 187.5 C 131.25 218.566406 156.433594 243.75 187.5 243.75 C 218.566406 243.75 243.75 218.566406 243.75 187.5 Z M 243.75 187.5 " clip-rule="nonzero"/></clipPath><clipPath id="67571687f8"><path d="M 139.816406 141 L 235.066406 141 L 235.066406 188.992188 L 139.816406 188.992188 Z M 139.816406 141 " clip-rule="nonzero"/></clipPath><clipPath id="20ae1ff13c"><path d="M 235.066406 184.492188 L 235.066406 145.730469 C 235.066406 143.246094 233.050781 141.230469 230.566406 141.230469 L 144.429688 141.230469 C 141.941406 141.230469 139.929688 143.246094 139.929688 145.730469 L 139.929688 184.492188 C 139.929688 186.976562 141.941406 188.992188 144.429688 188.992188 L 230.566406 188.992188 C 233.050781 188.992188 235.066406 186.976562 235.066406 184.492188 Z M 235.066406 184.492188 " clip-rule="nonzero"/></clipPath></defs><g clip-path="url(#6d988661d8)"><g clip-path="url(#3842c9bd91)"><path fill="#2563eb" d="M 243.75 131.25 L 243.75 243.75 L 131.25 243.75 L 131.25 131.25 Z M 243.75 131.25 " fill-opacity="1" fill-rule="nonzero"/></g></g><g clip-path="url(#67571687f8)"><g clip-path="url(#20ae1ff13c)"><path fill="#ffffff" d="M 139.96875 188.992188 L 139.96875 188.769531 C 139.96875 182.351562 141.226562 176.128906 143.707031 170.269531 C 146.097656 164.609375 149.527344 159.527344 153.890625 155.160156 C 158.253906 150.796875 163.339844 147.371094 168.996094 144.976562 C 174.855469 142.5 181.082031 141.242188 187.496094 141.242188 C 193.914062 141.242188 200.136719 142.5 205.996094 144.976562 C 211.65625 147.371094 216.738281 150.796875 221.105469 155.160156 C 225.46875 159.527344 228.894531 164.609375 231.289062 170.269531 C 233.769531 176.128906 235.023438 182.351562 235.023438 188.769531 L 235.023438 188.992188 Z M 139.96875 188.992188 " fill-opacity="1" fill-rule="nonzero"/></g></g></svg>