<svg xmlns="http://www.w3.org/2000/svg" xmlns:xlink="http://www.w3.org/1999/xlink" width="500" zoomAndPan="magnify" viewBox="0 0 375 374.999991" height="500" preserveAspectRatio="xMidYMid meet" version="1.0"><defs><g/><clipPath id="0c5500faa0"><path d="M 6.816406 131.25 L 119.316406 131.25 L 119.316406 243.75 L 6.816406 243.75 Z M 6.816406 131.25 " clip-rule="nonzero"/></clipPath><clipPath id="d1ab38c4d2"><path d="M 119.316406 187.5 C 119.316406 156.433594 94.128906 131.25 63.066406 131.25 C 32 131.25 6.816406 156.433594 6.816406 187.5 C 6.816406 218.566406 32 243.75 63.066406 243.75 C 94.128906 243.75 119.316406 218.566406 119.316406 187.5 Z M 119.316406 187.5 " clip-rule="nonzero"/></clipPath><clipPath id="0fa11f6ae5"><path d="M 15.378906 141 L 110.628906 141 L 110.628906 188.992188 L 15.378906 188.992188 Z M 15.378906 141 " clip-rule="nonzero"/></clipPath><clipPath id="2da43d81ab"><path d="M 110.628906 184.492188 L 110.628906 145.730469 C 110.628906 143.246094 108.613281 141.230469 106.128906 141.230469 L 19.992188 141.230469 C 17.507812 141.230469 15.492188 143.246094 15.492188 145.730469 L 15.492188 184.492188 C 15.492188 186.976562 17.507812 188.992188 19.992188 188.992188 L 106.128906 188.992188 C 108.613281 188.992188 110.628906 186.976562 110.628906 184.492188 Z M 110.628906 184.492188 " clip-rule="nonzero"/></clipPath></defs><g clip-path="url(#0c5500faa0)"><g clip-path="url(#d1ab38c4d2)"><path fill="#2563eb" d="M 119.316406 131.25 L 119.316406 243.75 L 6.816406 243.75 L 6.816406 131.25 Z M 119.316406 131.25 " fill-opacity="1" fill-rule="nonzero"/></g></g><g clip-path="url(#0fa11f6ae5)"><g clip-path="url(#2da43d81ab)"><path fill="#ffffff" d="M 15.535156 188.992188 L 15.535156 188.769531 C 15.535156 182.351562 16.792969 176.128906 19.269531 170.269531 C 21.664062 164.609375 25.089844 159.527344 29.453125 155.160156 C 33.820312 150.796875 38.902344 147.371094 44.5625 144.976562 C 50.421875 142.5 56.644531 141.242188 63.0625 141.242188 C 69.476562 141.242188 75.703125 142.5 81.5625 144.976562 C 87.222656 147.371094 92.304688 150.796875 96.667969 155.160156 C 101.03125 159.527344 104.460938 164.609375 106.855469 170.269531 C 109.332031 176.128906 110.589844 182.351562 110.589844 188.769531 L 110.589844 188.992188 Z M 15.535156 188.992188 " fill-opacity="1" fill-rule="nonzero"/></g></g><g fill="#000000" fill-opacity="1"><g transform="translate(132.446215, 212.200049)"><g><path d="M 12.863281 -6.65625 L 12.863281 -18.878906 L 30.207031 -18.878906 L 30.207031 -25.34375 L 12.863281 -25.34375 L 12.863281 -36.863281 L 32.703125 -36.863281 L 32.703125 -43.519531 L 5.3125 -43.519531 L 5.3125 0 L 33.277344 0 L 33.277344 -6.65625 Z M 12.863281 -6.65625 "/></g></g></g><g fill="#000000" fill-opacity="1"><g transform="translate(166.428013, 212.200049)"><g><path d="M 15.488281 -29.054688 C 11.648438 -29.054688 7.742188 -28.03125 3.519531 -26.109375 L 5.503906 -20.800781 C 8.449219 -22.207031 11.582031 -23.101562 14.398438 -23.101562 C 18.046875 -23.101562 20.222656 -21.632812 20.222656 -18.6875 L 20.222656 -17.40625 C 19.199219 -17.472656 18.109375 -17.535156 16.640625 -17.535156 C 7.9375 -17.535156 2.175781 -13.953125 2.175781 -7.421875 C 2.175781 -2.367188 5.886719 0.574219 11.136719 0.574219 C 15.808594 0.574219 19.199219 -1.28125 21.3125 -4.289062 L 22.589844 0 L 27.261719 0 L 27.261719 -18.429688 C 27.261719 -25.34375 22.78125 -29.054688 15.488281 -29.054688 Z M 13.183594 -4.671875 C 10.625 -4.671875 9.085938 -5.886719 9.085938 -8.128906 C 9.085938 -11.261719 12.03125 -13.054688 17.085938 -13.054688 C 18.367188 -13.054688 19.261719 -12.992188 20.414062 -12.863281 C 20.289062 -7.679688 17.28125 -4.671875 13.183594 -4.671875 Z M 13.183594 -4.671875 "/></g></g></g><g fill="#000000" fill-opacity="1"><g transform="translate(195.482111, 212.200049)"><g><path d="M 12.992188 0.640625 C 19.261719 0.640625 23.550781 -2.6875 23.550781 -8 C 23.550781 -12.734375 19.96875 -15.101562 14.976562 -16.960938 C 11.902344 -18.046875 9.792969 -19.136719 9.792969 -20.992188 C 9.792969 -22.78125 11.648438 -23.421875 13.824219 -23.421875 C 15.742188 -23.421875 18.046875 -22.847656 20.160156 -21.757812 L 22.589844 -26.429688 C 19.519531 -28.222656 16.511719 -28.992188 13.246094 -28.992188 C 7.808594 -28.992188 3.136719 -26.238281 3.136719 -20.992188 C 3.136719 -16.320312 6.65625 -13.953125 11.199219 -12.222656 C 14.015625 -11.136719 16.703125 -10.113281 16.703125 -8 C 16.703125 -6.207031 15.039062 -5.054688 12.480469 -5.054688 C 9.792969 -5.054688 7.105469 -5.886719 4.671875 -7.421875 L 1.921875 -2.496094 C 5.246094 -0.382812 8.769531 0.640625 12.992188 0.640625 Z M 12.992188 0.640625 "/></g></g></g><g fill="#000000" fill-opacity="1"><g transform="translate(219.032552, 212.200049)"><g><path d="M 23.421875 -28.542969 L 17.855469 -13.953125 C 17.28125 -12.222656 16.703125 -10.496094 16.128906 -8.382812 C 15.550781 -10.496094 14.910156 -12.222656 14.207031 -13.953125 L 8.128906 -28.542969 L 0.574219 -28.542969 L 0.574219 -28.351562 L 12.800781 -0.703125 L 6.464844 13.953125 L 6.464844 14.078125 L 13.886719 14.078125 L 30.71875 -28.351562 L 30.71875 -28.542969 Z M 23.421875 -28.542969 "/></g></g></g><g fill="#2563eb" fill-opacity="1"><g transform="translate(252.925916, 212.200049)"><g><path d="M 5.3125 0 L 12.863281 0 L 12.863281 -17.214844 L 30.460938 -17.214844 L 30.460938 -24 L 12.863281 -24 L 12.863281 -36.542969 L 32.511719 -36.542969 L 32.511719 -43.519531 L 5.3125 -43.519531 Z M 5.3125 0 "/></g></g></g><g fill="#2563eb" fill-opacity="1"><g transform="translate(286.33179, 212.200049)"><g><path d="M 7.617188 -34.496094 C 10.238281 -34.496094 11.96875 -36.285156 11.96875 -38.589844 C 11.96875 -40.957031 10.304688 -42.8125 7.617188 -42.8125 C 4.929688 -42.8125 3.265625 -40.957031 3.265625 -38.65625 C 3.265625 -36.351562 4.929688 -34.496094 7.617188 -34.496094 Z M 4.097656 0 L 11.070312 0 L 11.070312 -28.542969 L 4.097656 -28.542969 Z M 4.097656 0 "/></g></g></g><g fill="#2563eb" fill-opacity="1"><g transform="translate(300.218863, 212.200049)"><g><path d="M 19.839844 -29.3125 C 15.167969 -29.3125 12.09375 -26.941406 10.238281 -24.0625 L 8.832031 -28.542969 L 4.097656 -28.542969 L 4.097656 0 L 11.070312 0 L 11.070312 -15.679688 C 11.070312 -19.902344 13.695312 -23.039062 18.046875 -23.039062 C 21.503906 -23.039062 22.910156 -20.800781 22.910156 -17.214844 L 22.910156 0 L 29.886719 0 L 29.886719 -17.855469 C 29.886719 -25.152344 26.367188 -29.3125 19.839844 -29.3125 Z M 19.839844 -29.3125 "/></g></g></g><g fill="#2563eb" fill-opacity="1"><g transform="translate(332.6008, 212.200049)"><g><path d="M 25.535156 -46.078125 L 25.535156 -33.34375 C 25.535156 -30.207031 25.597656 -27.773438 25.726562 -25.152344 C 23.488281 -27.710938 20.03125 -29.246094 16.191406 -29.246094 C 8.191406 -29.246094 2.433594 -23.039062 2.433594 -14.464844 C 2.433594 -5.441406 8 0.703125 16.191406 0.703125 C 20.671875 0.703125 24.191406 -1.152344 26.496094 -4.289062 L 27.710938 0 L 32.511719 0 L 32.511719 -46.078125 Z M 17.597656 -5.375 C 12.734375 -5.375 9.472656 -8.960938 9.472656 -14.269531 C 9.472656 -19.519531 12.734375 -23.101562 17.597656 -23.101562 C 22.527344 -23.101562 25.789062 -19.519531 25.789062 -14.269531 C 25.789062 -8.960938 22.589844 -5.375 17.597656 -5.375 Z M 17.597656 -5.375 "/></g></g></g></svg>